<?xml version="1.0" encoding="UTF-8" standalone="no"?>
<!-- Created with Inkscape (http://www.inkscape.org/) -->

<svg
   width="200mm"
   height="200mm"
   viewBox="0 0 200 200"
   version="1.1"
   id="svg1"
   xml:space="preserve"
   inkscape:version="1.4 (86a8ad7, 2024-10-11)"
   sodipodi:docname="10.svg"
   xmlns:inkscape="http://www.inkscape.org/namespaces/inkscape"
   xmlns:sodipodi="http://sodipodi.sourceforge.net/DTD/sodipodi-0.dtd"
   xmlns="http://www.w3.org/2000/svg"
   xmlns:svg="http://www.w3.org/2000/svg"><sodipodi:namedview
     id="namedview1"
     pagecolor="#ffffff"
     bordercolor="#000000"
     borderopacity="0.25"
     inkscape:showpageshadow="2"
     inkscape:pageopacity="0.0"
     inkscape:pagecheckerboard="0"
     inkscape:deskcolor="#d1d1d1"
     inkscape:document-units="mm"
     inkscape:zoom="0.35355339"
     inkscape:cx="83.4386"
     inkscape:cy="-295.57064"
     inkscape:window-width="1920"
     inkscape:window-height="1009"
     inkscape:window-x="-8"
     inkscape:window-y="-8"
     inkscape:window-maximized="1"
     inkscape:current-layer="g57"
     inkscape:antialias-rendering="true" /><defs
     id="defs1" /><g
     inkscape:label="Слой 1"
     inkscape:groupmode="layer"
     id="layer1"
     transform="translate(-105.9417,-139.73828)"><g
       id="g57"
       inkscape:label="10"
       transform="matrix(4.0157513,0,0,4.0157513,-2762.0441,144.85459)"><circle
         style="fill:#3f29ff;fill-opacity:1;stroke:#000000;stroke-width:1.776;stroke-linecap:butt;stroke-dasharray:none;stroke-opacity:1"
         id="circle30"
         cx="739.08606"
         cy="23.62788"
         r="24.013941" /><circle
         style="fill:#ffffff;fill-opacity:1;stroke:none;stroke-width:1.776;stroke-linecap:butt;stroke-dasharray:none;stroke-opacity:1"
         id="circle38"
         cx="739.0321"
         cy="23.353769"
         r="10.39684" /><path
         style="fill:#ffffff;fill-opacity:1;stroke:none;stroke-width:1.776;stroke-linecap:butt;stroke-dasharray:none;stroke-opacity:1"
         d="m 721.61691,38.78746 c 0,0 11.42349,-1.296451 16.93469,-1.275495 5.53242,0.02104 17.9368,1.349298 17.9368,1.349298 -4.33348,5.171772 -11.25517,7.947234 -17.19688,7.947234 -8.1496,0 -13.0522,-2.82579 -17.67461,-8.021037 z"
         id="path45"
         sodipodi:nodetypes="cscsc" /><path
         style="fill:#ffffff;fill-opacity:1;stroke:none;stroke-width:1.776;stroke-linecap:butt;stroke-dasharray:none;stroke-opacity:1"
         d="m 721.59721,8.4737117 c 0,0 11.42349,1.2964512 16.93469,1.275495 5.53242,-0.02104 17.9368,-1.349298 17.9368,-1.349298 -4.33348,-5.1717723 -11.25517,-7.9472339 -17.19688,-7.9472339 -8.1496,0 -13.0522,2.8257896 -17.67461,8.0210369 z"
         id="path46"
         sodipodi:nodetypes="cscsc" /><path
         style="font-weight:600;font-size:12.7px;font-family:'Bookman Old Style';-inkscape-font-specification:'Bookman Old Style Semi-Bold';letter-spacing:0px;stroke-width:1.776"
         d="m 735.73394,18.845879 v 6.790283 q 0,0.440283 0.0372,0.5271 0.0558,0.155029 0.19844,0.223242 0.14263,0.06201 0.5271,0.06201 h 0.87436 v 1.196826 h -5.34541 v -1.196826 h 0.88057 q 0.46509,0 0.59531,-0.05581 0.13023,-0.06201 0.19224,-0.192236 0.0682,-0.136426 0.0682,-0.564307 v -4.843115 h -1.73633 V 19.59002 q 0.74415,-0.07441 1.14102,-0.15503 0.59531,-0.117822 1.26504,-0.32246 0.37207,-0.111622 0.69453,-0.266651 z m 7.09414,0 q 1.15341,0 1.98437,0.508496 0.83716,0.502295 1.30845,1.451074 0.47129,0.942579 0.47129,2.406055 0,1.649512 -0.43408,2.54248 -0.4899,1.010791 -1.32706,1.525489 -0.83095,0.514697 -2.04638,0.514697 -1.18443,0 -2.00298,-0.496094 -0.81235,-0.502295 -1.28984,-1.475879 -0.47749,-0.979785 -0.47749,-2.492871 0,-1.519287 0.47128,-2.480468 0.47749,-0.967383 1.32085,-1.48208 0.84336,-0.520899 2.02159,-0.520899 z m 1.6123,4.477246 q 0,-1.699121 -0.50229,-2.461865 -0.44649,-0.663525 -1.17203,-0.663525 -0.66972,0 -1.12861,0.700732 -0.45268,0.700732 -0.45268,2.424658 0,1.723926 0.45888,2.424658 0.45889,0.694532 1.15342,0.694532 0.70073,0 1.17202,-0.713135 0.47129,-0.719336 0.47129,-2.406055 z"
         id="text79"
         aria-label="10" /></g></g></svg>
