<?xml version="1.0" encoding="UTF-8" standalone="no"?>
<!-- Created with Inkscape (http://www.inkscape.org/) -->

<svg
   width="200mm"
   height="200mm"
   viewBox="0 0 200 200"
   version="1.1"
   id="svg1"
   xml:space="preserve"
   inkscape:version="1.4 (86a8ad7, 2024-10-11)"
   sodipodi:docname="11.svg"
   xmlns:inkscape="http://www.inkscape.org/namespaces/inkscape"
   xmlns:sodipodi="http://sodipodi.sourceforge.net/DTD/sodipodi-0.dtd"
   xmlns="http://www.w3.org/2000/svg"
   xmlns:svg="http://www.w3.org/2000/svg"><sodipodi:namedview
     id="namedview1"
     pagecolor="#ffffff"
     bordercolor="#000000"
     borderopacity="0.25"
     inkscape:showpageshadow="2"
     inkscape:pageopacity="0.0"
     inkscape:pagecheckerboard="0"
     inkscape:deskcolor="#d1d1d1"
     inkscape:document-units="mm"
     inkscape:zoom="0.35355339"
     inkscape:cx="-111.72287"
     inkscape:cy="-295.57064"
     inkscape:window-width="1920"
     inkscape:window-height="1009"
     inkscape:window-x="-8"
     inkscape:window-y="-8"
     inkscape:window-maximized="1"
     inkscape:current-layer="g58"
     inkscape:antialias-rendering="true" /><defs
     id="defs1" /><g
     inkscape:label="Слой 1"
     inkscape:groupmode="layer"
     id="layer1"
     transform="translate(-158.14061,-140.21336)"><g
       id="g58"
       inkscape:label="11"
       transform="matrix(4.0157513,0,0,4.0157513,-2935.7339,149.66146)"><circle
         style="fill:#ff1e01;fill-opacity:1;stroke:#000000;stroke-width:1.776;stroke-linecap:butt;stroke-dasharray:none;stroke-opacity:1"
         id="circle31"
         cx="795.33673"
         cy="22.549181"
         r="24.013941" /><circle
         style="fill:#ffffff;fill-opacity:1;stroke:none;stroke-width:1.776;stroke-linecap:butt;stroke-dasharray:none;stroke-opacity:1"
         id="circle39"
         cx="795.63348"
         cy="22.312822"
         r="10.39684" /><path
         style="fill:#ffffff;fill-opacity:1;stroke:none;stroke-width:1.776;stroke-linecap:butt;stroke-dasharray:none;stroke-opacity:1"
         d="m 777.85923,37.71034 c 0,0 11.42349,-1.296451 16.93469,-1.275495 5.53242,0.02104 17.9368,1.349298 17.9368,1.349298 -4.33348,5.171772 -11.25517,7.947234 -17.19688,7.947234 -8.1496,0 -13.0522,-2.82579 -17.67461,-8.021037 z"
         id="path47"
         sodipodi:nodetypes="cscsc" /><path
         style="fill:#ffffff;fill-opacity:1;stroke:none;stroke-width:1.776;stroke-linecap:butt;stroke-dasharray:none;stroke-opacity:1"
         d="m 777.83953,7.3965924 c 0,0 11.42349,1.2964512 16.93469,1.275495 5.53242,-0.02104 17.9368,-1.349298 17.9368,-1.349298 -4.33348,-5.1717723 -11.25517,-7.94723398 -17.19688,-7.94723398 -8.1496,0 -13.0522,2.82578968 -17.67461,8.02103698 z"
         id="path48"
         sodipodi:nodetypes="cscsc" /><path
         style="font-weight:600;font-size:12.7px;font-family:'Bookman Old Style';-inkscape-font-specification:'Bookman Old Style Semi-Bold';letter-spacing:0px;stroke-width:1.776"
         d="m 792.75157,18.18442 v 6.790283 q 0,0.440283 0.0372,0.5271 0.0558,0.155029 0.19844,0.223242 0.14263,0.06201 0.5271,0.06201 h 0.87436 v 1.196826 h -5.34541 v -1.196826 h 0.88057 q 0.46509,0 0.59531,-0.05581 0.13023,-0.06201 0.19224,-0.192236 0.0682,-0.136426 0.0682,-0.564307 v -4.843115 h -1.73633 v -1.203027 q 0.74414,-0.07441 1.14102,-0.15503 0.59531,-0.117822 1.26504,-0.32246 0.37207,-0.111622 0.69453,-0.266651 z m 8.38399,0 v 6.790283 q 0,0.440283 0.0372,0.5271 0.0558,0.155029 0.19843,0.223242 0.14263,0.06201 0.5271,0.06201 h 0.87437 v 1.196826 h -5.34541 v -1.196826 h 0.88056 q 0.46509,0 0.59532,-0.05581 0.13022,-0.06201 0.19223,-0.192236 0.0682,-0.136426 0.0682,-0.564307 v -4.843115 h -1.73633 v -1.203027 q 0.74414,-0.07441 1.14101,-0.15503 0.59532,-0.117822 1.26504,-0.32246 0.37207,-0.111622 0.69453,-0.266651 z"
         id="text80"
         aria-label="11" /></g></g></svg>
