<?xml version="1.0" encoding="UTF-8" standalone="no"?>
<!-- Created with Inkscape (http://www.inkscape.org/) -->

<svg
   width="200mm"
   height="200mm"
   viewBox="0 0 200 200"
   version="1.1"
   id="svg1"
   xml:space="preserve"
   inkscape:version="1.4 (86a8ad7, 2024-10-11)"
   sodipodi:docname="12.svg"
   xmlns:inkscape="http://www.inkscape.org/namespaces/inkscape"
   xmlns:sodipodi="http://sodipodi.sourceforge.net/DTD/sodipodi-0.dtd"
   xmlns="http://www.w3.org/2000/svg"
   xmlns:svg="http://www.w3.org/2000/svg"><sodipodi:namedview
     id="namedview1"
     pagecolor="#ffffff"
     bordercolor="#000000"
     borderopacity="0.25"
     inkscape:showpageshadow="2"
     inkscape:pageopacity="0.0"
     inkscape:pagecheckerboard="0"
     inkscape:deskcolor="#d1d1d1"
     inkscape:document-units="mm"
     inkscape:zoom="0.35355339"
     inkscape:cx="479.4184"
     inkscape:cy="-83.4386"
     inkscape:window-width="1920"
     inkscape:window-height="1009"
     inkscape:window-x="-8"
     inkscape:window-y="-8"
     inkscape:window-maximized="1"
     inkscape:current-layer="g59"
     inkscape:antialias-rendering="true" /><defs
     id="defs1" /><g
     inkscape:label="Слой 1"
     inkscape:groupmode="layer"
     id="layer1"
     transform="translate(-1.1789302,-85.19779)"><g
       id="g59"
       inkscape:label="12"
       transform="matrix(4.0157513,0,0,4.0157513,-3319.049,99.181593)"><circle
         style="fill:#8f12ff;fill-opacity:1;stroke:#000000;stroke-width:1.776;stroke-linecap:butt;stroke-dasharray:none;stroke-opacity:1"
         id="circle32"
         cx="851.70312"
         cy="21.419703"
         r="24.013941" /><circle
         style="fill:#ffffff;fill-opacity:1;stroke:none;stroke-width:1.776;stroke-linecap:butt;stroke-dasharray:none;stroke-opacity:1"
         id="circle40"
         cx="851.84454"
         cy="21.401997"
         r="10.39684" /><path
         style="fill:#ffffff;fill-opacity:1;stroke:none;stroke-width:1.776;stroke-linecap:butt;stroke-dasharray:none;stroke-opacity:1"
         d="m 834.25884,36.560897 c 0,0 11.42349,-1.296451 16.93469,-1.275495 5.53242,0.02104 17.9368,1.349298 17.9368,1.349298 -4.33348,5.171772 -11.25517,7.947234 -17.19688,7.947234 -8.1496,0 -13.0522,-2.82579 -17.67461,-8.021037 z"
         id="path49"
         sodipodi:nodetypes="cscsc" /><path
         style="fill:#ffffff;fill-opacity:1;stroke:none;stroke-width:1.776;stroke-linecap:butt;stroke-dasharray:none;stroke-opacity:1"
         d="m 834.23914,6.2471487 c 0,0 11.42349,1.2964512 16.93469,1.275495 5.53242,-0.02104 17.9368,-1.349298 17.9368,-1.349298 -4.33348,-5.1717723 -11.25517,-7.947234 -17.19688,-7.947234 -8.1496,0 -13.0522,2.8257897 -17.67461,8.021037 z"
         id="path50"
         sodipodi:nodetypes="cscsc" /><path
         style="font-weight:600;font-size:12.7px;font-family:'Bookman Old Style';-inkscape-font-specification:'Bookman Old Style Semi-Bold';letter-spacing:0px;stroke-width:1.776"
         d="m 848.71099,16.72921 v 6.790284 q 0,0.440283 0.0372,0.527099 0.0558,0.155029 0.19844,0.223242 0.14263,0.06201 0.5271,0.06201 h 0.87437 v 1.196826 h -5.34541 v -1.196826 h 0.88056 q 0.46509,0 0.59531,-0.05581 0.13023,-0.06201 0.19224,-0.192236 0.0682,-0.136426 0.0682,-0.564306 v -4.843116 h -1.73632 v -1.203027 q 0.74414,-0.07441 1.14101,-0.155029 0.59531,-0.117823 1.26504,-0.322461 0.37207,-0.111621 0.69453,-0.266651 z m 4.73149,3.578077 -1.25264,0.111621 q -0.0682,-0.322461 -0.0682,-0.613916 0,-0.892969 0.42168,-1.550293 0.42168,-0.663526 1.29605,-1.091407 0.88056,-0.434082 1.95336,-0.434082 0.98599,0 1.77974,0.378272 0.79995,0.37207 1.20303,0.967383 0.40307,0.595312 0.40307,1.252636 0,0.663526 -0.28525,1.240235 -0.31626,0.644922 -1.0356,1.246435 -0.71313,0.601514 -2.88354,1.928565 h 2.08359 q 0.5085,0 0.64493,-0.04961 0.13642,-0.05581 0.23564,-0.21084 0.0992,-0.155029 0.16743,-0.5333 l 0.0496,-0.285254 h 1.20303 l -0.56431,3.168799 h -0.81855 l -0.0744,-0.303858 h -5.71128 v -1.196826 q 1.25884,-0.818555 3.19361,-2.418457 0.99218,-0.818555 1.32085,-1.413867 0.24184,-0.434082 0.24184,-0.911572 0,-0.551905 -0.45888,-0.930176 -0.45269,-0.384473 -1.21543,-0.384473 -0.56431,0 -0.97979,0.21084 -0.41548,0.204639 -0.65112,0.589111 -0.23565,0.384473 -0.23565,0.812354 0,0.155029 0.0372,0.42168 z"
         id="text81"
         aria-label="12" /></g></g></svg>
