<?xml version="1.0" encoding="UTF-8" standalone="no"?>
<!-- Created with Inkscape (http://www.inkscape.org/) -->

<svg
   width="200mm"
   height="200mm"
   viewBox="0 0 200 200"
   version="1.1"
   id="svg1"
   xml:space="preserve"
   inkscape:version="1.4 (86a8ad7, 2024-10-11)"
   sodipodi:docname="13.svg"
   xmlns:inkscape="http://www.inkscape.org/namespaces/inkscape"
   xmlns:sodipodi="http://sodipodi.sourceforge.net/DTD/sodipodi-0.dtd"
   xmlns="http://www.w3.org/2000/svg"
   xmlns:svg="http://www.w3.org/2000/svg"><sodipodi:namedview
     id="namedview1"
     pagecolor="#ffffff"
     bordercolor="#000000"
     borderopacity="0.25"
     inkscape:showpageshadow="2"
     inkscape:pageopacity="0.0"
     inkscape:pagecheckerboard="0"
     inkscape:deskcolor="#d1d1d1"
     inkscape:document-units="mm"
     inkscape:zoom="0.35355339"
     inkscape:cx="284.25693"
     inkscape:cy="-94.752309"
     inkscape:window-width="1920"
     inkscape:window-height="1009"
     inkscape:window-x="-8"
     inkscape:window-y="-8"
     inkscape:window-maximized="1"
     inkscape:current-layer="g60"
     inkscape:antialias-rendering="true" /><defs
     id="defs1" /><g
     inkscape:label="Слой 1"
     inkscape:groupmode="layer"
     id="layer1"
     transform="translate(-53.313637,-87.11251)"><g
       id="g60"
       inkscape:label="13"
       transform="matrix(4.0157513,0,0,4.0157513,-3492.803,105.4281)"><circle
         style="fill:#f29300;fill-opacity:1;stroke:#000000;stroke-width:1.776;stroke-linecap:butt;stroke-dasharray:none;stroke-opacity:1"
         id="circle33"
         cx="907.9538"
         cy="20.341003"
         r="24.013941" /><circle
         style="fill:#ffffff;fill-opacity:1;stroke:none;stroke-width:1.776;stroke-linecap:butt;stroke-dasharray:none;stroke-opacity:1"
         id="circle41"
         cx="908.3158"
         cy="20.751406"
         r="10.39684" /><path
         style="fill:#ffffff;fill-opacity:1;stroke:none;stroke-width:1.776;stroke-linecap:butt;stroke-dasharray:none;stroke-opacity:1"
         d="m 890.45557,35.478085 c 0,0 11.42349,-1.296451 16.93469,-1.275495 5.53242,0.02104 17.9368,1.349298 17.9368,1.349298 -4.33348,5.171772 -11.25517,7.947234 -17.19688,7.947234 -8.1496,0 -13.0522,-2.82579 -17.67461,-8.021037 z"
         id="path51"
         sodipodi:nodetypes="cscsc" /><path
         style="fill:#ffffff;fill-opacity:1;stroke:none;stroke-width:1.776;stroke-linecap:butt;stroke-dasharray:none;stroke-opacity:1"
         d="m 890.43587,5.1643376 c 0,0 11.42349,1.2964512 16.93469,1.275495 5.53242,-0.02104 17.9368,-1.349298 17.9368,-1.349298 -4.33348,-5.17177229 -11.25517,-7.947234 -17.19688,-7.947234 -8.1496,0 -13.0522,2.82578971 -17.67461,8.021037 z"
         id="path52"
         sodipodi:nodetypes="cscsc" /><path
         style="font-weight:600;font-size:12.7px;font-family:'Bookman Old Style';-inkscape-font-specification:'Bookman Old Style Semi-Bold';letter-spacing:0px;stroke-width:1.776"
         d="m 905.19951,16.067751 v 6.790284 q 0,0.440283 0.0372,0.527099 0.0558,0.155029 0.19844,0.223242 0.14262,0.06201 0.5271,0.06201 h 0.87436 v 1.196826 h -5.34541 v -1.196826 h 0.88057 q 0.46509,0 0.59531,-0.05581 0.13022,-0.06201 0.19224,-0.192237 0.0682,-0.136426 0.0682,-0.564306 v -4.843116 h -1.73633 v -1.203027 q 0.74414,-0.07441 1.14102,-0.155029 0.59531,-0.117823 1.26504,-0.322461 0.37207,-0.111621 0.69453,-0.266651 z m 5.09116,2.933155 h -1.27744 q -0.006,-0.142627 -0.006,-0.235645 0,-0.799951 0.35967,-1.37666 0.36587,-0.58291 1.13481,-0.948779 0.77515,-0.372071 1.76734,-0.372071 0.94258,0 1.69292,0.334864 0.75034,0.328662 1.11621,0.84956 0.37207,0.520899 0.37207,1.072803 0,0.434082 -0.22944,0.855762 -0.22945,0.415478 -0.62012,0.706933 -0.26045,0.192237 -0.77515,0.390674 0.46509,0.04961 0.83096,0.229443 0.36587,0.173633 0.63252,0.446485 0.27285,0.26665 0.40307,0.607715 0.13643,0.341064 0.13643,0.737939 0,0.713135 -0.42168,1.333252 -0.42168,0.620117 -1.25264,1.00459 -0.83095,0.378271 -1.92856,0.378271 -1.0728,0 -1.90996,-0.359668 -0.83716,-0.359668 -1.25884,-0.911572 -0.42168,-0.551904 -0.42168,-1.097607 0,-0.415479 0.29766,-0.713135 0.29765,-0.297656 0.71933,-0.297656 0.40308,0 0.71314,0.279052 0.19844,0.179834 0.34106,0.613916 0.17984,0.564307 0.32246,0.750342 0.14883,0.179834 0.47749,0.322461 0.32867,0.142627 0.66973,0.142627 0.39688,0 0.76274,-0.192236 0.37207,-0.192237 0.54571,-0.483692 0.17363,-0.297656 0.17363,-0.713134 0,-0.762744 -0.58911,-1.122412 -0.45269,-0.279053 -1.40767,-0.279053 h -0.40307 v -1.196826 h 0.40307 q 0.75655,0 1.07901,-0.111621 0.32866,-0.111622 0.51469,-0.372071 0.18604,-0.26665 0.18604,-0.570508 0,-0.415478 -0.31006,-0.713134 -0.39067,-0.378272 -1.19062,-0.378272 -0.53331,0 -0.88057,0.161231 -0.34107,0.16123 -0.5395,0.458886 -0.19224,0.291455 -0.22945,0.768946 z"
         id="text82"
         aria-label="13" /></g></g></svg>
