<?xml version="1.0" encoding="UTF-8" standalone="no"?>
<!-- Created with Inkscape (http://www.inkscape.org/) -->

<svg
   width="200mm"
   height="200mm"
   viewBox="0 0 200 200"
   version="1.1"
   id="svg1"
   xml:space="preserve"
   inkscape:version="1.4 (86a8ad7, 2024-10-11)"
   sodipodi:docname="14.svg"
   xmlns:inkscape="http://www.inkscape.org/namespaces/inkscape"
   xmlns:sodipodi="http://sodipodi.sourceforge.net/DTD/sodipodi-0.dtd"
   xmlns="http://www.w3.org/2000/svg"
   xmlns:svg="http://www.w3.org/2000/svg"><sodipodi:namedview
     id="namedview1"
     pagecolor="#ffffff"
     bordercolor="#000000"
     borderopacity="0.25"
     inkscape:showpageshadow="2"
     inkscape:pageopacity="0.0"
     inkscape:pagecheckerboard="0"
     inkscape:deskcolor="#d1d1d1"
     inkscape:document-units="mm"
     inkscape:zoom="0.35355339"
     inkscape:cx="86.267027"
     inkscape:cy="-97.580736"
     inkscape:window-width="1920"
     inkscape:window-height="1009"
     inkscape:window-x="-8"
     inkscape:window-y="-8"
     inkscape:window-maximized="1"
     inkscape:current-layer="g61"
     inkscape:antialias-rendering="true" /><defs
     id="defs1" /><g
     inkscape:label="Слой 1"
     inkscape:groupmode="layer"
     id="layer1"
     transform="translate(-105.23917,-87.430559)"><g
       id="g61"
       inkscape:label="14"
       transform="matrix(4.0157513,0,0,4.0157513,-3655.4079,98.458531)"><circle
         style="fill:#08af00;fill-opacity:1;stroke:#000000;stroke-width:1.776;stroke-linecap:butt;stroke-dasharray:none;stroke-opacity:1"
         id="circle34"
         cx="961.37604"
         cy="22.155762"
         r="24.013941" /><circle
         style="fill:#ffffff;fill-opacity:1;stroke:none;stroke-width:1.776;stroke-linecap:butt;stroke-dasharray:none;stroke-opacity:1"
         id="circle42"
         cx="961.9245"
         cy="22.052588"
         r="10.39684" /><path
         style="fill:#ffffff;fill-opacity:1;stroke:none;stroke-width:1.776;stroke-linecap:butt;stroke-dasharray:none;stroke-opacity:1"
         d="m 943.90632,37.323092 c 0,0 11.42349,-1.296451 16.93469,-1.275495 5.53242,0.02104 17.9368,1.349298 17.9368,1.349298 -4.33348,5.171772 -11.25517,7.947234 -17.19688,7.947234 -8.1496,0 -13.0522,-2.82579 -17.67461,-8.021037 z"
         id="path53"
         sodipodi:nodetypes="cscsc" /><path
         style="fill:#ffffff;fill-opacity:1;stroke:none;stroke-width:1.776;stroke-linecap:butt;stroke-dasharray:none;stroke-opacity:1"
         d="m 943.88662,7.0093453 c 0,0 11.42349,1.2964512 16.93469,1.275495 5.53242,-0.02104 17.9368,-1.349298 17.9368,-1.349298 -4.33348,-5.1717723 -11.25517,-7.947234 -17.19688,-7.947234 -8.1496,0 -13.0522,2.8257897 -17.67461,8.021037 z"
         id="path54"
         sodipodi:nodetypes="cscsc" /><path
         style="font-weight:600;font-size:12.7px;font-family:'Bookman Old Style';-inkscape-font-specification:'Bookman Old Style Semi-Bold';letter-spacing:0px;stroke-width:1.776"
         d="m 958.90996,17.126086 v 6.790283 q 0,0.440283 0.0372,0.527099 0.0558,0.15503 0.19844,0.223243 0.14262,0.06201 0.52709,0.06201 h 0.87437 v 1.196827 h -5.34541 v -1.196827 h 0.88057 q 0.46508,0 0.59531,-0.05581 0.13022,-0.06201 0.19224,-0.192236 0.0682,-0.136426 0.0682,-0.564307 v -4.843115 h -1.73633 v -1.203028 q 0.74414,-0.07441 1.14102,-0.155029 0.59531,-0.117822 1.26503,-0.322461 0.37208,-0.111621 0.69454,-0.26665 z m 7.36079,0.148828 h 1.96577 V 21.963 h 1.63091 v 1.575097 h -1.63091 v 2.387452 h -1.96577 v -2.387452 h -4.08037 v -1.934765 z m 0,1.996777 -2.56728,2.691309 h 2.56728 z"
         id="text83"
         aria-label="14" /></g></g></svg>
