<?xml version="1.0" encoding="UTF-8" standalone="no"?>
<!-- Created with Inkscape (http://www.inkscape.org/) -->

<svg
   width="200mm"
   height="200mm"
   viewBox="0 0 200 200"
   version="1.1"
   id="svg1"
   xml:space="preserve"
   inkscape:version="1.4 (86a8ad7, 2024-10-11)"
   sodipodi:docname="15.svg"
   xmlns:inkscape="http://www.inkscape.org/namespaces/inkscape"
   xmlns:sodipodi="http://sodipodi.sourceforge.net/DTD/sodipodi-0.dtd"
   xmlns="http://www.w3.org/2000/svg"
   xmlns:svg="http://www.w3.org/2000/svg"><sodipodi:namedview
     id="namedview1"
     pagecolor="#ffffff"
     bordercolor="#000000"
     borderopacity="0.25"
     inkscape:showpageshadow="2"
     inkscape:pageopacity="0.0"
     inkscape:pagecheckerboard="0"
     inkscape:deskcolor="#d1d1d1"
     inkscape:document-units="mm"
     inkscape:zoom="0.35355339"
     inkscape:cx="-111.72287"
     inkscape:cy="-97.580736"
     inkscape:window-width="1920"
     inkscape:window-height="1009"
     inkscape:window-x="-8"
     inkscape:window-y="-8"
     inkscape:window-maximized="1"
     inkscape:current-layer="g62"
     inkscape:antialias-rendering="true" /><defs
     id="defs1" /><g
     inkscape:label="Слой 1"
     inkscape:groupmode="layer"
     id="layer1"
     transform="translate(-157.93518,-87.66148)"><g
       id="g62"
       inkscape:label="15"
       transform="matrix(4.0157513,0,0,4.0157513,-3828.6006,103.02124)"><circle
         style="fill:#870000;fill-opacity:1;stroke:#000000;stroke-width:1.776;stroke-linecap:butt;stroke-dasharray:none;stroke-opacity:1"
         id="circle35"
         cx="1017.6267"
         cy="21.077063"
         r="24.013941" /><circle
         style="fill:#ffffff;fill-opacity:1;stroke:none;stroke-width:1.776;stroke-linecap:butt;stroke-dasharray:none;stroke-opacity:1"
         id="circle43"
         cx="1017.6151"
         cy="20.751406"
         r="10.39684" /><path
         style="fill:#ffffff;fill-opacity:1;stroke:none;stroke-width:1.776;stroke-linecap:butt;stroke-dasharray:none;stroke-opacity:1"
         d="m 1000.1682,36.237158 c 0,0 11.4235,-1.296451 16.9347,-1.275495 5.5324,0.02104 17.9368,1.349298 17.9368,1.349298 -4.3335,5.171772 -11.2552,7.947234 -17.1969,7.947234 -8.1496,0 -13.0522,-2.82579 -17.6746,-8.021037 z"
         id="path55"
         sodipodi:nodetypes="cscsc" /><path
         style="fill:#ffffff;fill-opacity:1;stroke:none;stroke-width:1.776;stroke-linecap:butt;stroke-dasharray:none;stroke-opacity:1"
         d="m 1000.1485,5.9234118 c 0,0 11.4235,1.2964512 16.9347,1.275495 5.5324,-0.02104 17.9368,-1.349298 17.9368,-1.349298 -4.3335,-5.17177229 -11.2552,-7.947234 -17.1969,-7.947234 -8.1496,0 -13.0522,2.82578971 -17.6746,8.021037 z"
         id="path56"
         sodipodi:nodetypes="cscsc" /><path
         style="font-weight:600;font-size:12.7px;font-family:'Bookman Old Style';-inkscape-font-specification:'Bookman Old Style Semi-Bold';letter-spacing:0px;stroke-width:1.776"
         d="m 1014.4725,16.464627 v 6.790283 q 0,0.440283 0.037,0.5271 0.056,0.155029 0.1984,0.223242 0.1426,0.06201 0.5271,0.06201 h 0.8744 v 1.196827 h -5.3454 v -1.196827 h 0.8805 q 0.4651,0 0.5953,-0.05581 0.1303,-0.06201 0.1923,-0.192236 0.068,-0.136426 0.068,-0.564307 v -4.843115 h -1.7363 v -1.203028 q 0.7441,-0.07441 1.141,-0.155029 0.5953,-0.117822 1.265,-0.322461 0.3721,-0.111621 0.6945,-0.26665 z m 4.1113,4.892724 0.2295,-4.743896 h 4.3656 q 0.4093,0 0.5209,-0.06201 0.1178,-0.06821 0.1364,-0.235644 h 0.831 v 2.158007 h -4.5207 l -0.056,1.11001 q 0.7566,-0.08061 1.3705,-0.08061 1.2712,0 2.1208,0.37207 0.8495,0.372071 1.2588,0.998389 0.4093,0.626318 0.4093,1.463477 0,1.457275 -1.1782,2.313037 -1.0542,0.762744 -2.5611,0.762744 -1.0046,0 -1.8108,-0.341065 -0.8061,-0.347265 -1.203,-0.861963 -0.3907,-0.514697 -0.3907,-1.035595 0,-0.415479 0.2791,-0.694532 0.2853,-0.285253 0.6945,-0.285253 0.2915,0 0.5333,0.16123 0.2419,0.16123 0.4217,0.539502 0.2543,0.520898 0.4713,0.756543 0.217,0.229443 0.5085,0.353467 0.2915,0.124023 0.6511,0.124023 0.4775,0 0.8558,-0.186035 0.3783,-0.192236 0.5705,-0.514697 0.1922,-0.328662 0.1922,-0.750342 0,-0.713135 -0.6015,-1.159619 -0.6015,-0.446485 -1.8975,-0.446485 -1.1535,0 -2.2015,0.285254 z"
         id="text84"
         aria-label="15" /></g></g></svg>
