<?xml version="1.0" encoding="UTF-8" standalone="no"?>
<!-- Created with Inkscape (http://www.inkscape.org/) -->

<svg
   width="200mm"
   height="200mm"
   viewBox="0 0 200 200"
   version="1.1"
   id="svg1"
   xml:space="preserve"
   inkscape:version="1.4 (86a8ad7, 2024-10-11)"
   sodipodi:docname="2.svg"
   xmlns:inkscape="http://www.inkscape.org/namespaces/inkscape"
   xmlns:sodipodi="http://sodipodi.sourceforge.net/DTD/sodipodi-0.dtd"
   xmlns="http://www.w3.org/2000/svg"
   xmlns:svg="http://www.w3.org/2000/svg"><sodipodi:namedview
     id="namedview1"
     pagecolor="#ffffff"
     bordercolor="#000000"
     borderopacity="0.25"
     inkscape:showpageshadow="2"
     inkscape:pageopacity="0.0"
     inkscape:pagecheckerboard="0"
     inkscape:deskcolor="#d1d1d1"
     inkscape:document-units="mm"
     inkscape:zoom="0.35355339"
     inkscape:cx="261.62951"
     inkscape:cy="145.664"
     inkscape:window-width="1920"
     inkscape:window-height="1009"
     inkscape:window-x="-8"
     inkscape:window-y="-8"
     inkscape:window-maximized="1"
     inkscape:current-layer="g69"
     inkscape:antialias-rendering="true" /><defs
     id="defs1" /><g
     inkscape:label="Слой 1"
     inkscape:groupmode="layer"
     id="layer1"
     transform="translate(-105.3182,-244.87388)"><g
       id="g69"
       inkscape:label="2"
       transform="matrix(4.0157513,0,0,4.0157513,-965.19119,220.72895)"><circle
         style="fill:#3f29ff;fill-opacity:1;stroke:#000000;stroke-width:1.776;stroke-linecap:butt;stroke-dasharray:none;stroke-opacity:1"
         id="circle3"
         cx="291.47955"
         cy="30.914497"
         r="24.013941" /><circle
         style="fill:#ffffff;fill-opacity:1;stroke:none;stroke-width:1.776;stroke-linecap:butt;stroke-dasharray:none;stroke-opacity:1"
         id="circle23"
         cx="291.4256"
         cy="30.640387"
         r="10.39684" /><path
         style="font-weight:600;font-size:12.7px;font-family:'Bookman Old Style';-inkscape-font-specification:'Bookman Old Style Semi-Bold';letter-spacing:0px;stroke-width:1.776"
         d="m 289.16885,29.567703 -1.25264,0.111621 q -0.0682,-0.322461 -0.0682,-0.613916 0,-0.892969 0.42168,-1.550293 0.42168,-0.663526 1.29604,-1.091407 0.88057,-0.434082 1.95337,-0.434082 0.98599,0 1.77974,0.378272 0.79995,0.37207 1.20303,0.967383 0.40307,0.595312 0.40307,1.252636 0,0.663526 -0.28525,1.240235 -0.31626,0.644922 -1.0356,1.246435 -0.71313,0.601514 -2.88354,1.928565 h 2.08359 q 0.5085,0 0.64492,-0.04961 0.13643,-0.05581 0.23565,-0.210839 0.0992,-0.15503 0.16743,-0.533301 l 0.0496,-0.285254 h 1.20303 l -0.56431,3.168799 h -0.81856 l -0.0744,-0.303858 h -5.71128 v -1.196826 q 1.25884,-0.818555 3.1936,-2.418457 0.99219,-0.818555 1.32085,-1.413867 0.24185,-0.434082 0.24185,-0.911572 0,-0.551905 -0.45889,-0.930176 -0.45268,-0.384473 -1.21543,-0.384473 -0.5643,0 -0.97978,0.21084 -0.41548,0.204639 -0.65112,0.589111 -0.23565,0.384473 -0.23565,0.812354 0,0.155029 0.0372,0.42168 z"
         id="text71"
         aria-label="2" /></g></g></svg>
