<?xml version="1.0" encoding="UTF-8" standalone="no"?>
<!-- Created with Inkscape (http://www.inkscape.org/) -->

<svg
   width="200mm"
   height="200mm"
   viewBox="0 0 200 200"
   version="1.1"
   id="svg1"
   xml:space="preserve"
   inkscape:version="1.4 (86a8ad7, 2024-10-11)"
   sodipodi:docname="3.svg"
   xmlns:inkscape="http://www.inkscape.org/namespaces/inkscape"
   xmlns:sodipodi="http://sodipodi.sourceforge.net/DTD/sodipodi-0.dtd"
   xmlns="http://www.w3.org/2000/svg"
   xmlns:svg="http://www.w3.org/2000/svg"><sodipodi:namedview
     id="namedview1"
     pagecolor="#ffffff"
     bordercolor="#000000"
     borderopacity="0.25"
     inkscape:showpageshadow="2"
     inkscape:pageopacity="0.0"
     inkscape:pagecheckerboard="0"
     inkscape:deskcolor="#d1d1d1"
     inkscape:document-units="mm"
     inkscape:zoom="0.35355339"
     inkscape:cx="-108.89444"
     inkscape:cy="-691.55043"
     inkscape:window-width="1920"
     inkscape:window-height="1009"
     inkscape:window-x="-8"
     inkscape:window-y="-8"
     inkscape:window-maximized="1"
     inkscape:current-layer="g68"
     inkscape:antialias-rendering="true" /><defs
     id="defs1" /><g
     inkscape:label="Слой 1"
     inkscape:groupmode="layer"
     id="layer1"
     transform="translate(-157.0668,-245.3078)"><g
       id="g68"
       inkscape:label="3"
       transform="matrix(4.0157513,0,0,4.0157513,-1139.3313,225.49466)"><circle
         style="fill:#ff1e01;fill-opacity:1;stroke:#000000;stroke-width:1.776;stroke-linecap:butt;stroke-dasharray:none;stroke-opacity:1"
         id="circle4"
         cx="347.73022"
         cy="29.835798"
         r="24.013941" /><circle
         style="fill:#ffffff;fill-opacity:1;stroke:none;stroke-width:1.776;stroke-linecap:butt;stroke-dasharray:none;stroke-opacity:1"
         id="circle24"
         cx="348.02701"
         cy="29.59944"
         r="10.39684" /><path
         style="font-weight:600;font-size:12.7px;font-family:'Bookman Old Style';-inkscape-font-specification:'Bookman Old Style Semi-Bold';letter-spacing:0px;stroke-width:1.776"
         d="m 346.01707,27.99674 h -1.27744 q -0.006,-0.142627 -0.006,-0.235644 0,-0.799952 0.35967,-1.376661 0.36587,-0.58291 1.13481,-0.948779 0.77515,-0.37207 1.76734,-0.37207 0.94257,0 1.69292,0.334863 0.75034,0.328662 1.11621,0.849561 0.37207,0.520898 0.37207,1.072802 0,0.434082 -0.22945,0.855762 -0.22944,0.415479 -0.62011,0.706934 -0.26045,0.192236 -0.77515,0.390673 0.46509,0.04961 0.83096,0.229444 0.36587,0.173633 0.63252,0.446484 0.27285,0.266651 0.40307,0.607715 0.13643,0.341064 0.13643,0.737939 0,0.713135 -0.42168,1.333252 -0.42168,0.620118 -1.25264,1.00459 -0.83096,0.378272 -1.92856,0.378272 -1.07281,0 -1.90996,-0.359668 -0.83716,-0.359668 -1.25884,-0.911573 -0.42168,-0.551904 -0.42168,-1.097607 0,-0.415478 0.29765,-0.713135 0.29766,-0.297656 0.71934,-0.297656 0.40308,0 0.71314,0.279053 0.19843,0.179834 0.34106,0.613916 0.17983,0.564306 0.32246,0.750342 0.14883,0.179834 0.47749,0.322461 0.32866,0.142626 0.66973,0.142626 0.39687,0 0.76274,-0.192236 0.37207,-0.192236 0.5457,-0.483691 0.17364,-0.297657 0.17364,-0.713135 0,-0.762744 -0.58911,-1.122412 -0.45269,-0.279053 -1.40767,-0.279053 h -0.40308 v -1.196826 h 0.40308 q 0.75654,0 1.079,-0.111621 0.32867,-0.111621 0.5147,-0.37207 0.18604,-0.266651 0.18604,-0.570508 0,-0.415479 -0.31006,-0.713135 -0.39068,-0.378271 -1.19063,-0.378271 -0.5333,0 -0.88056,0.16123 -0.34107,0.161231 -0.53951,0.458887 -0.19223,0.291455 -0.22944,0.768945 z"
         id="text72"
         aria-label="3" /></g></g></svg>
