<?xml version="1.0" encoding="UTF-8" standalone="no"?>
<!-- Created with Inkscape (http://www.inkscape.org/) -->

<svg
   width="200mm"
   height="200mm"
   viewBox="0 0 200 200"
   version="1.1"
   id="svg1"
   xml:space="preserve"
   inkscape:version="1.4 (86a8ad7, 2024-10-11)"
   sodipodi:docname="5.svg"
   xmlns:inkscape="http://www.inkscape.org/namespaces/inkscape"
   xmlns:sodipodi="http://sodipodi.sourceforge.net/DTD/sodipodi-0.dtd"
   xmlns="http://www.w3.org/2000/svg"
   xmlns:svg="http://www.w3.org/2000/svg"><sodipodi:namedview
     id="namedview1"
     pagecolor="#ffffff"
     bordercolor="#000000"
     borderopacity="0.25"
     inkscape:showpageshadow="2"
     inkscape:pageopacity="0.0"
     inkscape:pagecheckerboard="0"
     inkscape:deskcolor="#d1d1d1"
     inkscape:document-units="mm"
     inkscape:zoom="0.35355339"
     inkscape:cx="80.610173"
     inkscape:cy="-493.56053"
     inkscape:window-width="1920"
     inkscape:window-height="1009"
     inkscape:window-x="-8"
     inkscape:window-y="-8"
     inkscape:window-maximized="1"
     inkscape:current-layer="g66"
     inkscape:antialias-rendering="true" /><defs
     id="defs1" /><g
     inkscape:label="Слой 1"
     inkscape:groupmode="layer"
     id="layer1"
     transform="translate(-107.05755,-192.76071)"><g
       id="g66"
       inkscape:label="5"
       transform="matrix(4.0157513,0,0,4.0157513,-1641.5828,181.81506)"><circle
         style="fill:#f29300;fill-opacity:1;stroke:#000000;stroke-width:1.776;stroke-linecap:butt;stroke-dasharray:none;stroke-opacity:1"
         id="circle6"
         cx="460.34732"
         cy="27.627621"
         r="24.013941" /><circle
         style="fill:#ffffff;fill-opacity:1;stroke:none;stroke-width:1.776;stroke-linecap:butt;stroke-dasharray:none;stroke-opacity:1"
         id="circle26"
         cx="460.70932"
         cy="28.038023"
         r="10.39684" /><path
         style="font-weight:600;font-size:12.7px;font-family:'Bookman Old Style';-inkscape-font-specification:'Bookman Old Style Semi-Bold';letter-spacing:0px;stroke-width:1.776"
         d="m 457.48522,28.104229 0.22945,-4.743896 h 4.36562 q 0.40928,0 0.5209,-0.06201 0.11782,-0.06821 0.13643,-0.235645 h 0.83095 v 2.158008 h -4.52065 l -0.0558,1.11001 q 0.75654,-0.08062 1.37046,-0.08062 1.27124,0 2.1208,0.37207 0.84956,0.37207 1.25884,0.998389 0.40927,0.626318 0.40927,1.463476 0,1.457276 -1.17822,2.313037 -1.0542,0.762744 -2.56108,0.762744 -1.00459,0 -1.81075,-0.341064 -0.80615,-0.347266 -1.20302,-0.861963 -0.39068,-0.514697 -0.39068,-1.035596 0,-0.415478 0.27906,-0.694531 0.28525,-0.285254 0.69453,-0.285254 0.29145,0 0.5333,0.161231 0.24184,0.16123 0.42168,0.539502 0.25425,0.520898 0.47129,0.756543 0.21704,0.229443 0.50849,0.353466 0.29146,0.124024 0.65113,0.124024 0.47749,0 0.85576,-0.186035 0.37827,-0.192237 0.57051,-0.514698 0.19223,-0.328662 0.19223,-0.750341 0,-0.713135 -0.60151,-1.15962 -0.60152,-0.446484 -1.89756,-0.446484 -1.15342,0 -2.20142,0.285254 z"
         id="text74"
         aria-label="5" /></g></g></svg>
