<?xml version="1.0" encoding="UTF-8" standalone="no"?>
<!-- Created with Inkscape (http://www.inkscape.org/) -->

<svg
   width="200mm"
   height="200mm"
   viewBox="0 0 200 200"
   version="1.1"
   id="svg1"
   xml:space="preserve"
   inkscape:version="1.4 (86a8ad7, 2024-10-11)"
   sodipodi:docname="6.svg"
   xmlns:inkscape="http://www.inkscape.org/namespaces/inkscape"
   xmlns:sodipodi="http://sodipodi.sourceforge.net/DTD/sodipodi-0.dtd"
   xmlns="http://www.w3.org/2000/svg"
   xmlns:svg="http://www.w3.org/2000/svg"><sodipodi:namedview
     id="namedview1"
     pagecolor="#ffffff"
     bordercolor="#000000"
     borderopacity="0.25"
     inkscape:showpageshadow="2"
     inkscape:pageopacity="0.0"
     inkscape:pagecheckerboard="0"
     inkscape:deskcolor="#d1d1d1"
     inkscape:document-units="mm"
     inkscape:zoom="0.35355339"
     inkscape:cx="275.77165"
     inkscape:cy="-493.56053"
     inkscape:window-width="1920"
     inkscape:window-height="1009"
     inkscape:window-x="-8"
     inkscape:window-y="-8"
     inkscape:window-maximized="1"
     inkscape:current-layer="g65"
     inkscape:antialias-rendering="true" /><defs
     id="defs1" /><g
     inkscape:label="Слой 1"
     inkscape:groupmode="layer"
     id="layer1"
     transform="translate(-55.175662,-192.70459)"><g
       id="g65"
       inkscape:label="6"
       transform="matrix(4.0157513,0,0,4.0157513,-1907.995,174.47132)"><circle
         style="fill:#08af00;fill-opacity:1;stroke:#000000;stroke-width:1.776;stroke-linecap:butt;stroke-dasharray:none;stroke-opacity:1"
         id="circle7"
         cx="513.76953"
         cy="29.442379"
         r="24.013941" /><circle
         style="fill:#ffffff;fill-opacity:1;stroke:none;stroke-width:1.776;stroke-linecap:butt;stroke-dasharray:none;stroke-opacity:1"
         id="circle27"
         cx="514.31799"
         cy="29.339205"
         r="10.39684" /><path
         style="font-weight:600;font-size:12.7px;font-family:'Bookman Old Style';-inkscape-font-specification:'Bookman Old Style Semi-Bold';letter-spacing:0px;stroke-width:1.776"
         d="m 517.14463,24.534422 v 1.21543 q -1.18442,0.04341 -1.89755,0.223242 -0.70694,0.179834 -1.17823,0.489893 -0.47129,0.310058 -0.76894,0.737939 -0.29146,0.42168 -0.40308,0.967383 0.54571,-0.378271 1.0294,-0.533301 0.48989,-0.16123 1.0604,-0.16123 0.90537,0 1.6185,0.37207 0.71314,0.37207 1.08521,1.00459 0.37827,0.63252 0.37827,1.463477 0,1.382861 -0.97979,2.27583 -0.97358,0.892968 -2.63549,0.892968 -1.71773,0 -2.68511,-0.917773 -1.13482,-1.066602 -1.13482,-2.945557 0,-1.27124 0.37828,-2.158007 0.38447,-0.892969 1.20302,-1.575098 0.81856,-0.68833 1.91617,-1.010791 1.1038,-0.328662 3.01376,-0.341065 z m -2.72231,4.347022 q -0.45269,0 -0.79995,0.204639 -0.34727,0.198437 -0.5395,0.576708 -0.19224,0.372071 -0.19224,0.855762 0,0.706934 0.42168,1.159619 0.42788,0.446485 1.0728,0.446485 0.66353,0 1.09141,-0.446485 0.43408,-0.452685 0.43408,-1.178222 0,-0.731739 -0.42168,-1.172022 -0.41548,-0.446484 -1.0666,-0.446484 z"
         id="text75"
         aria-label="6" /></g></g></svg>
