<?xml version="1.0" encoding="UTF-8" standalone="no"?>
<!-- Created with Inkscape (http://www.inkscape.org/) -->

<svg
   width="200mm"
   height="200mm"
   viewBox="0 0 200 200"
   version="1.1"
   id="svg1"
   xml:space="preserve"
   inkscape:version="1.4 (86a8ad7, 2024-10-11)"
   sodipodi:docname="7.svg"
   xmlns:inkscape="http://www.inkscape.org/namespaces/inkscape"
   xmlns:sodipodi="http://sodipodi.sourceforge.net/DTD/sodipodi-0.dtd"
   xmlns="http://www.w3.org/2000/svg"
   xmlns:svg="http://www.w3.org/2000/svg"><sodipodi:namedview
     id="namedview1"
     pagecolor="#ffffff"
     bordercolor="#000000"
     borderopacity="0.25"
     inkscape:showpageshadow="2"
     inkscape:pageopacity="0.0"
     inkscape:pagecheckerboard="0"
     inkscape:deskcolor="#d1d1d1"
     inkscape:document-units="mm"
     inkscape:zoom="0.35355339"
     inkscape:cx="473.76154"
     inkscape:cy="-490.73211"
     inkscape:window-width="1920"
     inkscape:window-height="1009"
     inkscape:window-x="-8"
     inkscape:window-y="-8"
     inkscape:window-maximized="1"
     inkscape:current-layer="g64"
     inkscape:antialias-rendering="true" /><defs
     id="defs1" /><g
     inkscape:label="Слой 1"
     inkscape:groupmode="layer"
     id="layer1"
     transform="translate(-3.1224685,-191.86003)"><g
       id="g64"
       inkscape:label="7"
       transform="matrix(4.0157513,0,0,4.0157513,-2185.9369,177.95855)"><circle
         style="fill:#870000;fill-opacity:1;stroke:#000000;stroke-width:1.776;stroke-linecap:butt;stroke-dasharray:none;stroke-opacity:1"
         id="circle8"
         cx="570.0202"
         cy="28.36368"
         r="24.013941" /><circle
         style="fill:#ffffff;fill-opacity:1;stroke:none;stroke-width:1.776;stroke-linecap:butt;stroke-dasharray:none;stroke-opacity:1"
         id="circle28"
         cx="570.00861"
         cy="28.038023"
         r="10.39684" /><path
         style="font-weight:600;font-size:12.7px;font-family:'Bookman Old Style';-inkscape-font-specification:'Bookman Old Style Semi-Bold';letter-spacing:0px;stroke-width:1.776"
         d="m 566.88837,23.093682 h 0.81855 l 0.0868,0.266651 h 5.78569 v 1.196826 q -0.82475,0.799951 -1.33325,1.506885 -0.5023,0.706933 -0.93638,1.655712 -0.42788,0.942578 -0.63872,1.773536 -0.21084,0.824755 -0.37827,2.517675 h -2.22622 q 0.14883,-1.531689 0.50229,-2.548681 0.35347,-1.023194 1.13482,-2.207618 0.78135,-1.190624 1.64951,-2.027783 h -2.82153 q -0.5395,0 -0.70694,0.06201 -0.16743,0.06201 -0.26665,0.198438 -0.0992,0.136425 -0.22324,0.613916 l -0.13022,0.502294 -1.18443,-0.279052 z"
         id="text76"
         aria-label="7" /></g></g></svg>
