<?xml version="1.0" encoding="UTF-8" standalone="no"?>
<!-- Created with Inkscape (http://www.inkscape.org/) -->

<svg
   width="200mm"
   height="200mm"
   viewBox="0 0 200 200"
   version="1.1"
   id="svg1"
   xml:space="preserve"
   inkscape:version="1.4 (86a8ad7, 2024-10-11)"
   sodipodi:docname="8.svg"
   xmlns:inkscape="http://www.inkscape.org/namespaces/inkscape"
   xmlns:sodipodi="http://sodipodi.sourceforge.net/DTD/sodipodi-0.dtd"
   xmlns="http://www.w3.org/2000/svg"
   xmlns:svg="http://www.w3.org/2000/svg"><sodipodi:namedview
     id="namedview1"
     pagecolor="#ffffff"
     bordercolor="#000000"
     borderopacity="0.25"
     inkscape:showpageshadow="2"
     inkscape:pageopacity="0.0"
     inkscape:pagecheckerboard="0"
     inkscape:deskcolor="#d1d1d1"
     inkscape:document-units="mm"
     inkscape:zoom="0.35355339"
     inkscape:cx="473.76154"
     inkscape:cy="-287.08535"
     inkscape:window-width="1920"
     inkscape:window-height="1009"
     inkscape:window-x="-8"
     inkscape:window-y="-8"
     inkscape:window-maximized="1"
     inkscape:current-layer="g63"
     inkscape:antialias-rendering="true" /><defs
     id="defs1" /><g
     inkscape:label="Слой 1"
     inkscape:groupmode="layer"
     id="layer1"
     transform="translate(-2.7517645,-137.78446)"><g
       id="g63"
       inkscape:label="8"
       transform="matrix(4.0157513,0,0,4.0157513,-2424.4845,128.41868)"><circle
         style="fill:#000000;fill-opacity:1;stroke:#000000;stroke-width:1.776;stroke-linecap:butt;stroke-dasharray:none;stroke-opacity:1"
         id="circle9"
         cx="629.33087"
         cy="27.234201"
         r="24.013941" /><circle
         style="fill:#ffffff;fill-opacity:1;stroke:none;stroke-width:1.776;stroke-linecap:butt;stroke-dasharray:none;stroke-opacity:1"
         id="circle29"
         cx="630.12317"
         cy="27.51755"
         r="10.39684" /><path
         style="font-weight:600;font-size:12.7px;font-family:'Bookman Old Style';-inkscape-font-specification:'Bookman Old Style Semi-Bold';letter-spacing:0px;stroke-width:1.776"
         d="m 631.61411,26.808184 q 0.96118,0.378271 1.48208,1.029394 0.40928,0.502295 0.40928,1.246436 0,1.134814 -0.89297,1.866552 -0.99839,0.812354 -2.67891,0.812354 -1.12241,0 -1.94096,-0.341064 -0.81856,-0.341065 -1.22163,-0.874366 -0.40308,-0.539502 -0.40308,-1.110009 0,-0.595313 0.44028,-1.134815 0.44649,-0.539502 1.38907,-0.917773 -0.78755,-0.353467 -1.18443,-0.911573 -0.39067,-0.558105 -0.39067,-1.227832 0,-0.663525 0.36587,-1.203027 0.37207,-0.539502 1.14721,-0.880566 0.78135,-0.347266 1.79214,-0.347266 1.27744,0 2.18902,0.558106 0.91157,0.551904 0.91157,1.506884 0,0.558106 -0.31006,1.023194 -0.31006,0.458886 -1.10381,0.905371 z m -1.17822,-0.5271 0.22944,-0.254248 q 0.22324,-0.235644 0.29766,-0.365869 0.11162,-0.179834 0.15503,-0.328662 0.0496,-0.155029 0.0496,-0.310059 0,-0.334863 -0.35347,-0.589111 -0.34727,-0.260449 -0.97358,-0.260449 -0.60152,0 -0.93638,0.241845 -0.32866,0.235645 -0.32866,0.551905 0,0.279052 0.19843,0.47749 0.26665,0.26665 0.97359,0.558105 z m -1.0356,1.680518 q -0.59531,0.310058 -0.88056,0.669726 -0.27906,0.353467 -0.27906,0.682129 0,0.260449 0.19224,0.520899 0.19224,0.254248 0.58291,0.415478 0.39067,0.155029 0.91777,0.155029 0.5209,0 0.91778,-0.142627 0.39687,-0.148828 0.5643,-0.359668 0.16744,-0.217041 0.16744,-0.465087 0,-0.310059 -0.21084,-0.514698 -0.30386,-0.297656 -1.048,-0.595312 z"
         id="text77"
         aria-label="8" /></g></g></svg>
