<?xml version="1.0" encoding="UTF-8" standalone="no"?>
<!-- Created with Inkscape (http://www.inkscape.org/) -->

<svg
   width="200mm"
   height="200mm"
   viewBox="0 0 200 200"
   version="1.1"
   id="svg1"
   xml:space="preserve"
   inkscape:version="1.4 (86a8ad7, 2024-10-11)"
   sodipodi:docname="9.svg"
   xmlns:inkscape="http://www.inkscape.org/namespaces/inkscape"
   xmlns:sodipodi="http://sodipodi.sourceforge.net/DTD/sodipodi-0.dtd"
   xmlns="http://www.w3.org/2000/svg"
   xmlns:svg="http://www.w3.org/2000/svg"><sodipodi:namedview
     id="namedview1"
     pagecolor="#ffffff"
     bordercolor="#000000"
     borderopacity="0.25"
     inkscape:showpageshadow="2"
     inkscape:pageopacity="0.0"
     inkscape:pagecheckerboard="0"
     inkscape:deskcolor="#d1d1d1"
     inkscape:document-units="mm"
     inkscape:zoom="0.35355339"
     inkscape:cx="281.4285"
     inkscape:cy="-287.08535"
     inkscape:window-width="1920"
     inkscape:window-height="1009"
     inkscape:window-x="-8"
     inkscape:window-y="-8"
     inkscape:window-maximized="1"
     inkscape:current-layer="g56"
     inkscape:antialias-rendering="true" /><defs
     id="defs1" /><g
     inkscape:label="Слой 1"
     inkscape:groupmode="layer"
     id="layer1"
     transform="translate(-54.020069,-139.15176)"><g
       id="g56"
       inkscape:label="9"
       transform="matrix(4.0157513,0,0,4.0157513,-2599.4353,151.55569)"><circle
         style="fill:#fbff1a;fill-opacity:1;stroke:#000000;stroke-width:1.776;stroke-linecap:butt;stroke-dasharray:none;stroke-opacity:1"
         id="circle36"
         cx="685.66382"
         cy="21.813122"
         r="24.013941" /><circle
         style="fill:#ffffff;fill-opacity:1;stroke:none;stroke-width:1.776;stroke-linecap:butt;stroke-dasharray:none;stroke-opacity:1"
         id="circle37"
         cx="685.81372"
         cy="22.247765"
         r="10.39684" /><path
         style="fill:#ffffff;fill-opacity:1;stroke:none;stroke-width:1.776;stroke-linecap:butt;stroke-dasharray:none;stroke-opacity:1"
         d="m 668.1989,36.972445 c 0,0 11.42349,-1.296451 16.93469,-1.275495 5.53242,0.02104 17.9368,1.349298 17.9368,1.349298 -4.33348,5.171772 -11.25517,7.947234 -17.19688,7.947234 -8.1496,0 -13.0522,-2.82579 -17.67461,-8.021037 z"
         id="path43"
         sodipodi:nodetypes="cscsc" /><path
         style="fill:#ffffff;fill-opacity:1;stroke:none;stroke-width:1.776;stroke-linecap:butt;stroke-dasharray:none;stroke-opacity:1"
         d="m 668.1792,6.6586964 c 0,0 11.42349,1.296451 16.93469,1.275495 5.53242,-0.02104 17.9368,-1.349298 17.9368,-1.349298 -4.33348,-5.1717723 -11.25517,-7.9472339 -17.19688,-7.9472339 -8.1496,0 -13.0522,2.8257896 -17.67461,8.0210369 z"
         id="path44"
         sodipodi:nodetypes="cscsc" /><path
         style="font-weight:600;font-size:12.7px;font-family:'Bookman Old Style';-inkscape-font-specification:'Bookman Old Style Semi-Bold';letter-spacing:0px;stroke-width:1.776"
         d="m 683.53237,26.868127 v -1.209228 q 1.19063,-0.04961 1.89756,-0.223242 0.70694,-0.179834 1.17822,-0.489893 0.47749,-0.310058 0.76895,-0.731738 0.29145,-0.427881 0.40928,-0.979785 -0.54571,0.384472 -1.0356,0.545703 -0.48989,0.155029 -1.0542,0.155029 -0.90537,0 -1.62471,-0.37207 -0.71313,-0.378272 -1.0852,-1.00459 -0.37207,-0.632519 -0.37207,-1.469678 0,-1.382861 0.97358,-2.27583 0.97359,-0.892968 2.6417,-0.892968 1.71773,0 2.68511,0.917773 1.13481,1.072803 1.13481,2.951758 0,1.265039 -0.38447,2.158008 -0.38447,0.892968 -1.20303,1.581298 -0.81235,0.682129 -1.91616,1.010791 -1.0976,0.322461 -3.01377,0.328662 z m 2.72232,-4.347021 q 0.45268,0 0.79995,-0.198437 0.34726,-0.198438 0.5395,-0.576709 0.19224,-0.378272 0.19224,-0.861963 0,-0.706934 -0.42788,-1.153418 -0.42168,-0.446485 -1.06661,-0.446485 -0.65732,0 -1.0914,0.446485 -0.42788,0.446484 -0.42788,1.172021 0,0.731738 0.41548,1.178223 0.42168,0.440283 1.0666,0.440283 z"
         id="text78"
         aria-label="9" /></g></g></svg>
